<?xml version="1.0" encoding="UTF-8"?>
<svg version="1.1" xmlns="http://www.w3.org/2000/svg" width="512" height="512">
<path d="M0 0 C0.90340118 -0.01022186 1.80680237 -0.02044373 2.73757935 -0.03097534 C5.70830171 -0.05865542 8.6780902 -0.05686266 11.64892578 -0.05224609 C13.72486716 -0.06002646 15.80080537 -0.06869712 17.8767395 -0.07821655 C22.22261893 -0.09311701 26.56817334 -0.09257634 30.9140625 -0.08203125 C36.46806252 -0.07044729 42.02072739 -0.10429915 47.57450676 -0.1507206 C51.86068425 -0.18026549 56.14654281 -0.18192929 60.43280411 -0.17570114 C62.47963225 -0.17672415 64.52647904 -0.18713553 66.57320786 -0.20732498 C85.87731649 -0.3743807 85.87731649 -0.3743807 92.24539185 4.96939087 C97.8746984 11.00386296 98.48384402 15.89916497 98.23095703 24.09619141 C97.46322748 29.27690072 95.54116746 32.97420457 91.71923828 36.54931641 C84.71923828 40.54931641 84.71923828 40.54931641 57.71923828 40.54931641 C57.71923828 159.34931641 57.71923828 278.14931641 57.71923828 400.54931641 C66.62923828 400.54931641 75.53923828 400.54931641 84.71923828 400.54931641 C96.31457726 408.27954239 96.31457726 408.27954239 97.71923828 413.54931641 C98.81619194 421.60658665 98.52696042 427.97975224 93.71533203 434.68212891 C87.96176131 440.06413831 83.04906052 441.14354271 75.43847656 441.09863281 C74.53507538 441.10885468 73.63167419 441.11907654 72.70089722 441.12960815 C69.73017485 441.15728824 66.76038636 441.15549548 63.78955078 441.15087891 C61.7136094 441.15865927 59.63767119 441.16732994 57.56173706 441.17684937 C53.21585764 441.19174983 48.87030322 441.19120915 44.52441406 441.18066406 C38.97041405 441.1690801 33.41774917 441.20293196 27.8639698 441.24935341 C23.57779231 441.27889831 19.29193375 441.2805621 15.00567245 441.27433395 C12.95884432 441.27535697 10.91199753 441.28576834 8.86526871 441.30595779 C-10.43883993 441.47301351 -10.43883993 441.47301351 -16.80691528 436.12924194 C-22.43622184 430.09476985 -23.04536745 425.19946785 -22.79248047 417.00244141 C-21.79602678 410.27828061 -18.67361455 406.42284128 -13.43701172 402.32275391 C-7.88726824 399.30871343 -1.46523537 400.13366947 4.65673828 400.29931641 C8.96736328 400.38181641 13.27798828 400.46431641 17.71923828 400.54931641 C17.71923828 387.34931641 17.71923828 374.14931641 17.71923828 360.54931641 C12.82021416 360.56264008 12.82021416 360.56264008 7.82221985 360.57623291 C-22.16211742 360.65591269 -52.14643101 360.71558551 -82.13084952 360.75357772 C-86.0646909 360.75858025 -89.99853204 360.76375757 -93.93237305 360.76904297 C-94.7154947 360.77009221 -95.49861635 360.77114145 -96.30546895 360.77222249 C-108.96788394 360.78960418 -121.63022592 360.82112948 -134.29259767 360.85792759 C-147.29570859 360.89539937 -160.29878139 360.91756541 -173.30194408 360.92567039 C-181.31870224 360.93114526 -189.335254 360.94840586 -197.3519486 360.98098227 C-203.51026521 361.00472473 -209.6684261 361.00712056 -215.82678223 361.00174713 C-218.34498677 361.0028441 -220.8631994 361.01075424 -223.38135719 361.02613831 C-244.36636825 361.1480113 -261.11254875 358.99685753 -276.99951172 343.88916016 C-287.7418515 332.87090411 -294.50860632 319.32841382 -294.54818726 303.76533508 C-294.55271837 303.02446551 -294.55724948 302.28359594 -294.5619179 301.52027577 C-294.57448606 299.06024574 -294.57294648 296.60043926 -294.57128906 294.14038086 C-294.57727914 292.36721007 -294.58408579 290.59404188 -294.59164429 288.82087708 C-294.60926469 284.01896415 -294.61399805 279.21712258 -294.61527586 274.41518044 C-294.6167005 271.40990415 -294.62097606 268.40464582 -294.62627029 265.39937401 C-294.64475893 254.89994537 -294.65294255 244.40056742 -294.65136719 233.90112305 C-294.65016677 224.13883444 -294.67125249 214.37676728 -294.70285451 204.61453468 C-294.72907408 196.21337995 -294.73973207 187.81229729 -294.73845637 179.411102 C-294.73794832 174.40230305 -294.74354416 169.39370093 -294.76481247 164.38494301 C-294.78429028 159.66931648 -294.78425456 154.95407258 -294.76977921 150.23843193 C-294.76770165 148.51683106 -294.77232849 146.79520564 -294.78450012 145.07364655 C-294.90547997 126.7625637 -290.53640958 111.41257672 -277.62060547 97.83056641 C-265.41049066 85.92621408 -251.27859617 80.21009651 -234.33422852 80.30880737 C-233.25341885 80.30709852 -232.17260918 80.30538967 -231.0590477 80.30362904 C-227.44929047 80.30034338 -223.83972048 80.31132278 -220.22998047 80.32226562 C-217.63770044 80.32282994 -215.0454201 80.32251279 -212.45314026 80.32138062 C-206.8782051 80.32033407 -201.3033169 80.32658649 -195.72839355 80.33785629 C-187.66808825 80.3541397 -179.60780556 80.3593222 -171.54748559 80.36183228 C-158.46881868 80.36620493 -145.39017678 80.37950235 -132.31152344 80.3984375 C-119.61002731 80.41680744 -106.90853799 80.43095849 -94.20703125 80.43945312 C-93.03181418 80.4402413 -93.03181418 80.4402413 -91.83285534 80.44104539 C-87.90220972 80.44365554 -83.97156405 80.44618294 -80.04091835 80.4486692 C-47.45418051 80.4693883 -14.86747625 80.50515418 17.71923828 80.54931641 C17.71923828 67.34931641 17.71923828 54.14931641 17.71923828 40.54931641 C9.23768821 40.78525922 9.23768821 40.78525922 0.75854492 41.08984375 C-7.2274657 41.20128482 -12.33824962 40.03587699 -18.28076172 34.54931641 C-22.86533671 29.1820091 -23.00706537 23.957952 -22.79248047 17.00244141 C-22.02475092 11.82173209 -20.1026909 8.12442824 -16.28076172 4.54931641 C-10.69413927 0.7284584 -6.69247394 -0.03949215 0 0 Z M-248.28076172 126.54931641 C-253.470128 133.11316348 -254.40252857 138.99407905 -254.41447449 147.29122925 C-254.41674004 147.94407965 -254.4190056 148.59693005 -254.42133981 149.26956379 C-254.42763806 151.44339938 -254.42685315 153.61717196 -254.42602539 155.79101562 C-254.42901947 157.35525594 -254.43242258 158.91949552 -254.436203 160.48373413 C-254.4450214 164.72345415 -254.44738019 168.96315398 -254.44801879 173.20288229 C-254.44873046 175.85398791 -254.450867 178.50508843 -254.45351601 181.15619278 C-254.46276195 190.41142349 -254.46685179 199.66663982 -254.46606445 208.921875 C-254.46546371 217.53899197 -254.47601681 226.15604633 -254.49180812 234.77314746 C-254.50489722 242.18055384 -254.51024778 249.58793978 -254.50960904 256.99535763 C-254.50935448 261.41543412 -254.51218277 265.83545493 -254.52278709 270.25551987 C-254.53249126 274.41370959 -254.53253139 278.57179066 -254.52527046 282.72998428 C-254.52422753 284.25210988 -254.52657012 285.77424232 -254.53263092 287.2963562 C-254.79001053 301.88223326 -254.79001053 301.88223326 -248.28076172 314.54931641 C-240.6705821 320.56591141 -233.37412462 320.69794731 -223.99234009 320.66957092 C-222.95815834 320.67042535 -221.9239766 320.67127977 -220.85845602 320.67216009 C-217.39455199 320.67380666 -213.93069644 320.66830695 -210.46679688 320.6628418 C-207.98318483 320.66255972 -205.49957269 320.66271806 -203.01596069 320.6632843 C-197.66963707 320.66351199 -192.32332852 320.66067629 -186.97700882 320.65504646 C-179.24717346 320.64691203 -171.51734401 320.64431425 -163.78750484 320.64305847 C-151.245703 320.64087101 -138.70390768 320.6342192 -126.16210938 320.62475586 C-113.98046908 320.61557384 -101.79883056 320.60850834 -89.6171875 320.60424805 C-88.85838472 320.60398005 -88.09958194 320.60371205 -87.31778514 320.60343593 C-81.3832598 320.60135645 -75.44873443 320.59939955 -69.51420903 320.59748137 C-40.43638728 320.58805135 -11.35858184 320.56793217 17.71923828 320.54931641 C17.71923828 254.54931641 17.71923828 188.54931641 17.71923828 120.54931641 C-26.87450795 120.49104651 -26.87450795 120.49104651 -71.46826172 120.45166016 C-77.48128266 120.44774448 -83.4943035 120.44370354 -89.50732422 120.43945312 C-90.26094584 120.43892563 -91.01456747 120.43839813 -91.79102612 120.43785465 C-103.95352818 120.4291589 -116.11601132 120.41339284 -128.27850217 120.39501081 C-140.76291662 120.37629978 -153.24732116 120.36519713 -165.73174906 120.36113942 C-173.43368306 120.35839686 -181.13556355 120.3497384 -188.83748108 120.33348347 C-194.74590462 120.32164984 -200.65430078 120.32040811 -206.56273651 120.32310104 C-208.98466572 120.32255078 -211.40659696 120.31857198 -213.8285141 120.31090546 C-217.1363608 120.30094805 -220.44397901 120.3033506 -223.75183105 120.30880737 C-224.70904729 120.30298169 -225.66626353 120.29715601 -226.65248632 120.29115379 C-234.71436317 120.32707366 -241.89361953 121.15572967 -248.28076172 126.54931641 Z " fill="#403D39" transform="translate(294.28076171875,35.45068359375)"/>
<path d="M0 0 C1.24663422 -0.0038269 2.49326843 -0.00765381 3.77767944 -0.01159668 C7.08388441 -0.0150065 10.38933031 0.0010083 13.69543457 0.0234375 C17.01971069 0.03632307 20.34376266 0.00569716 23.66796875 -0.015625 C26.23698308 -0.01297957 28.8059963 -0.00785015 31.375 0 C32.55462311 -0.00809692 33.73424622 -0.01619385 34.94961548 -0.02453613 C51.10766744 0.154548 65.1248109 6.08443499 76.8046875 17.19140625 C87.54702728 28.20966229 94.3137821 41.75215259 94.35336304 57.31523132 C94.35789415 58.0561009 94.36242526 58.79697047 94.36709368 59.56029063 C94.37966184 62.02032067 94.37812226 64.48012715 94.37646484 66.94018555 C94.38245492 68.71335634 94.38926157 70.48652453 94.39682007 72.25968933 C94.41444047 77.06160226 94.41917383 81.86344383 94.42045164 86.66538596 C94.42187628 89.67066225 94.42615184 92.67592058 94.43144608 95.6811924 C94.44993471 106.18062103 94.45811833 116.67999899 94.45654297 127.17944336 C94.45534256 136.94173196 94.47642827 146.70379913 94.5080303 156.46603173 C94.53424986 164.86718646 94.54490785 173.26826912 94.54363215 181.66946441 C94.5431241 186.67826336 94.54871994 191.68686548 94.56998825 196.6956234 C94.58946606 201.41124992 94.58943034 206.12649382 94.57495499 210.84213448 C94.57287743 212.56373534 94.57750427 214.28536077 94.5896759 216.00691986 C94.71065575 234.3180027 90.34158536 249.66798969 77.42578125 263.25 C64.38987275 275.95946672 49.83630263 280.81060348 31.93359375 280.9375 C30.67888779 280.94890015 29.42418182 280.96030029 28.13145447 280.9720459 C25.48633359 280.99087802 22.8416627 281.00470723 20.1965332 281.01171875 C16.82945044 281.02269605 13.46398201 281.07081401 10.09740543 281.12766266 C6.85542696 281.17414444 3.61335857 281.17782653 0.37109375 281.1875 C-0.82603745 281.2121936 -2.02316864 281.23688721 -3.25657654 281.2623291 C-11.06329133 281.22103418 -16.05996625 279.81882738 -21.9140625 274.53125 C-26.49863749 269.16394269 -26.64036615 263.93988559 -26.42578125 256.984375 C-25.6580517 251.80366569 -23.73599168 248.10636183 -19.9140625 244.53125 C-13.97879796 240.35029912 -9.38586435 239.95484703 -2.23046875 239.9921875 C-0.70896461 239.97449814 -0.70896461 239.97449814 0.84327698 239.95645142 C4.07015445 239.92130231 7.29638459 239.91203541 10.5234375 239.90625 C13.74672449 239.88985019 16.96972598 239.86767822 20.19288635 239.83462524 C22.19292369 239.81516359 24.19309109 239.80564187 26.19322205 239.80770874 C34.36101354 239.74577755 41.59378846 238.99055715 48.0859375 233.53125 C52.71423257 227.45384018 53.20897546 221.20362997 53.21965027 213.78933716 C53.2230486 212.81006156 53.2230486 212.81006156 53.22651559 211.81100261 C53.23281384 209.63716702 53.23202893 207.46339445 53.23120117 205.28955078 C53.23419525 203.72531047 53.23759836 202.16107089 53.24137878 200.59683228 C53.25019718 196.35711225 53.25255598 192.11741242 53.25319457 187.87768412 C53.25390625 185.22657849 53.25604278 182.57547798 53.25869179 179.92437363 C53.26793773 170.66914291 53.27202757 161.41392659 53.27124023 152.15869141 C53.27063949 143.54157444 53.28119259 134.92452007 53.2969839 126.30741894 C53.310073 118.90001257 53.31542356 111.49262662 53.31478482 104.08520877 C53.31453026 99.66513229 53.31735855 95.24511147 53.32796288 90.82504654 C53.33766705 86.66685682 53.33770717 82.50877575 53.33044624 78.35058212 C53.32940332 76.82845653 53.3317459 75.30632409 53.3378067 73.78421021 C53.59102834 59.20391131 53.59102834 59.20391131 47.0859375 46.53125 C39.8979196 41.05716338 32.1351459 41.40705365 23.53515625 41.42578125 C21.45376567 41.41232597 19.37238474 41.39730296 17.29101562 41.38085938 C14.03229092 41.35805051 10.77466313 41.34374532 7.51586914 41.35620117 C4.35484302 41.36505559 1.19596013 41.33603511 -1.96484375 41.30078125 C-2.92763748 41.31301224 -3.89043121 41.32524323 -4.88240051 41.33784485 C-11.99870548 41.21158161 -16.52091215 39.17266079 -21.9140625 34.53125 C-26.49863749 29.16394269 -26.64036615 23.93988559 -26.42578125 16.984375 C-25.6580517 11.80366569 -23.73599168 8.10636183 -19.9140625 4.53125 C-13.51603621 -0.19977472 -7.78366814 -0.05288256 0 0 Z " fill="#403D39" transform="translate(417.9140625,115.46875)"/>
<path d="M0 0 C0.90340118 -0.01022186 1.80680237 -0.02044373 2.73757935 -0.03097534 C5.70830171 -0.05865542 8.6780902 -0.05686266 11.64892578 -0.05224609 C13.72486716 -0.06002646 15.80080537 -0.06869712 17.8767395 -0.07821655 C22.22261893 -0.09311701 26.56817334 -0.09257634 30.9140625 -0.08203125 C36.46806252 -0.07044729 42.02072739 -0.10429915 47.57450676 -0.1507206 C51.86068425 -0.18026549 56.14654281 -0.18192929 60.43280411 -0.17570114 C62.47963225 -0.17672415 64.52647904 -0.18713553 66.57320786 -0.20732498 C85.87731649 -0.3743807 85.87731649 -0.3743807 92.24539185 4.96939087 C97.8746984 11.00386296 98.48384402 15.89916497 98.23095703 24.09619141 C97.24671487 30.7379477 94.20286311 34.65428358 88.96557617 38.65039062 C83.36896898 41.78941661 77.000346 40.96888515 70.78173828 40.79931641 C69.52554688 40.78126953 68.26935547 40.76322266 66.97509766 40.74462891 C63.88901912 40.69769235 60.80453048 40.63204054 57.71923828 40.54931641 C57.73256195 41.36871201 57.74588562 42.1881076 57.75961304 43.03233337 C57.88023812 50.78486106 57.97138764 58.53692864 58.03011131 66.29015255 C58.06131804 70.27546928 58.10359111 74.26000546 58.171875 78.24487305 C58.23745492 82.09640137 58.27302434 85.94718286 58.28850174 89.79922676 C58.29951961 91.26281035 58.32103488 92.72635675 58.35361862 94.18961906 C58.5432639 103.06568276 58.0889328 109.82607705 51.71923828 116.54931641 C46.35193098 121.1338914 41.12787387 121.27562006 34.17236328 121.06103516 C27.55503221 120.08041257 23.67434853 117.04054207 19.62695312 111.88330078 C16.32010772 105.93626259 17.23132844 98.81137983 17.32861328 92.20947266 C17.33608312 90.71732851 17.34177254 89.22517448 17.34576416 87.73301697 C17.36096231 83.82506743 17.40019243 79.91772221 17.44458008 76.01000977 C17.48565949 72.01473157 17.50380207 68.01935476 17.52392578 64.02392578 C17.56669362 56.19878191 17.63487264 48.37413416 17.71923828 40.54931641 C16.94845947 40.5807373 16.17768066 40.6121582 15.38354492 40.64453125 C11.84991477 40.77019264 8.31675599 40.84758734 4.78173828 40.92431641 C3.569375 40.97458984 2.35701172 41.02486328 1.10791016 41.07666016 C-7.01952439 41.20881356 -12.22176966 40.14341978 -18.28076172 34.54931641 C-22.86533671 29.1820091 -23.00706537 23.957952 -22.79248047 17.00244141 C-22.02475092 11.82173209 -20.1026909 8.12442824 -16.28076172 4.54931641 C-10.69413927 0.7284584 -6.69247394 -0.03949215 0 0 Z " fill="#FD802E" transform="translate(102.28076171875,195.45068359375)"/>
</svg>
